# Blender 5.1.0
# www.blender.org
o Rudder
v -0.717776 0.003239 0.760174
v -0.717776 -0.003239 0.760174
v -0.717776 0.005395 0.760174
v -0.717776 -0.005395 0.760174
v -0.226532 -0.005395 -0.454398
v -0.262712 -0.005395 -0.359008
v -0.302038 -0.005395 -0.260982
v -0.351821 -0.005395 -0.136580
v -0.398874 -0.005395 -0.022728
v -0.444840 -0.005395 0.088487
v -0.487983 -0.005395 0.197064
v -0.532609 -0.005395 0.313553
v -0.606993 -0.005395 0.485431
v -0.226532 -0.003239 -0.454398
v -0.262712 -0.003239 -0.359008
v -0.302038 -0.003239 -0.260982
v -0.351821 -0.003239 -0.136580
v -0.398874 -0.003239 -0.022728
v -0.444840 -0.003239 0.088487
v -0.487983 -0.003239 0.197064
v -0.532609 -0.003239 0.313553
v -0.606993 -0.003239 0.485431
v -0.606993 0.005395 0.485431
v -0.532609 0.005395 0.313553
v -0.487983 0.005395 0.197064
v -0.444840 0.005395 0.088487
v -0.398874 0.005395 -0.022728
v -0.351821 0.005395 -0.136580
v -0.302038 0.005395 -0.260982
v -0.262712 0.005395 -0.359009
v -0.226532 0.005395 -0.454398
v -0.226532 0.003239 -0.454398
v -0.262712 0.003239 -0.359008
v -0.302038 0.003239 -0.260982
v -0.351821 0.003239 -0.136580
v -0.398874 0.003239 -0.022728
v -0.444840 0.003239 0.088487
v -0.487983 0.003239 0.197064
v -0.532609 0.003239 0.313553
v -0.606993 0.003239 0.485431
v -0.688494 0.003656 0.784535
v -0.260942 0.004073 0.806257
v -0.688494 -0.003656 0.784535
v -0.260942 -0.004073 0.806257
v -0.688371 0.006567 0.784538
v -0.260695 0.007739 0.806265
v -0.688371 -0.006567 0.784538
v -0.260695 -0.007739 0.806265
v 0.278175 0.006567 -0.441246
v 0.213568 0.006567 -0.343145
v 0.146324 0.006567 -0.242407
v 0.071167 0.006567 -0.115294
v 0.001284 0.006567 0.001269
v -0.073873 0.006567 0.115195
v -0.141118 0.006567 0.226483
v -0.213637 0.006567 0.345683
v -0.306864 0.006567 0.544350
v -0.219611 0.007739 0.713039
v 0.278175 -0.006567 -0.441245
v 0.213568 -0.006567 -0.343145
v 0.146324 -0.006567 -0.242407
v 0.071167 -0.006567 -0.115294
v 0.001284 -0.006567 0.001269
v -0.073873 -0.006567 0.115195
v -0.141118 -0.006567 0.226483
v -0.213638 -0.006567 0.345683
v -0.219610 -0.007739 0.713039
v -0.306864 -0.006567 0.544350
v 0.375582 -0.005395 -0.743706
v 0.375582 0.005395 -0.743706
v 0.476770 -0.006567 -0.732920
v 0.476770 0.006567 -0.732920
v 0.412007 -0.005395 -0.966363
v -0.069219 -0.005395 -0.850693
v 0.412007 -0.003239 -0.966363
v -0.069219 -0.003239 -0.850693
v 0.412007 0.003239 -0.966363
v -0.069219 0.003239 -0.850693
v -0.069219 0.005394 -0.850693
v 0.412007 0.005394 -0.966363
v -0.474718 0.003865 0.795396
v -0.474718 -0.003865 0.795396
v -0.474533 0.007153 0.795402
v -0.474533 -0.007153 0.795402
v -0.244408 0.007153 0.650340
v -0.244408 -0.007153 0.650340
v -0.569801 -0.005395 0.399492
v -0.569801 -0.003239 0.399492
v -0.569801 0.005395 0.399492
v -0.569801 0.003239 0.399492
v -0.281896 -0.006567 0.453463
v -0.281896 0.006567 0.453463
v -0.588397 -0.005395 0.442462
v -0.588397 -0.003239 0.442462
v -0.588397 0.003239 0.442462
v -0.300891 -0.006567 0.500315
v -0.300891 0.006567 0.500315
v -0.588397 0.005395 0.442462
v -0.293937 -0.006860 0.583971
v -0.581606 0.003760 0.789965
v -0.581606 -0.003760 0.789965
v -0.581452 0.006860 0.789970
v -0.581452 -0.006860 0.789970
v -0.293938 0.006860 0.583971
v -0.367830 0.003969 0.800827
v -0.367830 -0.003969 0.800827
v -0.367614 0.007446 0.800834
v -0.367614 -0.007446 0.800834
v -0.224677 0.007446 0.682276
v -0.224677 -0.007446 0.682276
v -0.662384 -0.005395 0.622803
v -0.662384 -0.003239 0.622803
v -0.662384 0.003239 0.622803
v -0.662384 0.005395 0.622803
v -0.235460 0.007739 0.765518
v -0.497617 0.006567 0.664444
v -0.497617 -0.006567 0.664444
v -0.235460 -0.007739 0.765518
v -0.359471 -0.007153 0.722871
v -0.359471 0.007153 0.722871
v -0.437695 -0.006860 0.686970
v -0.437695 0.006860 0.686970
v -0.299812 0.007446 0.741262
v -0.299812 -0.007446 0.741262
v -0.634689 0.005395 0.554117
v -0.634689 -0.005395 0.554117
v -0.634689 -0.003239 0.554117
v -0.634689 0.003239 0.554117
v -0.224896 0.007739 0.741918
v -0.402241 0.006567 0.604397
v -0.402241 -0.006567 0.604397
v -0.224895 -0.007739 0.741918
v -0.301939 -0.007153 0.686605
v -0.301939 0.007153 0.686605
v -0.365816 -0.006860 0.635471
v -0.365816 0.006860 0.635471
v -0.265911 0.007446 0.711476
v -0.265911 -0.007446 0.711476
v -0.717776 -0.003239 0.760174
v -0.717776 0.003239 0.760174
v -0.717776 -0.005395 0.760174
v -0.717776 0.005395 0.760174
v -0.226532 0.005395 -0.454398
v -0.262712 0.005395 -0.359008
v -0.302038 0.005395 -0.260982
v -0.351821 0.005395 -0.136580
v -0.398874 0.005395 -0.022728
v -0.444840 0.005395 0.088487
v -0.487983 0.005395 0.197064
v -0.532609 0.005395 0.313553
v -0.606993 0.005395 0.485431
v -0.226532 0.003239 -0.454398
v -0.262712 0.003239 -0.359008
v -0.302038 0.003239 -0.260982
v -0.351821 0.003239 -0.136580
v -0.398874 0.003239 -0.022728
v -0.444840 0.003239 0.088487
v -0.487983 0.003239 0.197064
v -0.532609 0.003239 0.313553
v -0.606993 0.003239 0.485431
v -0.606993 -0.005395 0.485431
v -0.532609 -0.005395 0.313553
v -0.487983 -0.005395 0.197064
v -0.444840 -0.005395 0.088487
v -0.398874 -0.005395 -0.022728
v -0.351821 -0.005395 -0.136580
v -0.302038 -0.005395 -0.260982
v -0.262712 -0.005395 -0.359009
v -0.226532 -0.005395 -0.454398
v -0.226532 -0.003239 -0.454398
v -0.262712 -0.003239 -0.359008
v -0.302038 -0.003239 -0.260982
v -0.351821 -0.003239 -0.136580
v -0.398874 -0.003239 -0.022728
v -0.444840 -0.003239 0.088487
v -0.487983 -0.003239 0.197064
v -0.532609 -0.003239 0.313553
v -0.606993 -0.003239 0.485431
v -0.688494 -0.003656 0.784535
v -0.260942 -0.004073 0.806257
v -0.688494 0.003656 0.784535
v -0.260942 0.004073 0.806257
v -0.688371 -0.006567 0.784538
v -0.260695 -0.007739 0.806265
v -0.688371 0.006567 0.784538
v -0.260695 0.007739 0.806265
v 0.278175 -0.006567 -0.441246
v 0.213568 -0.006567 -0.343145
v 0.146324 -0.006567 -0.242407
v 0.071167 -0.006567 -0.115294
v 0.001284 -0.006567 0.001269
v -0.073873 -0.006567 0.115195
v -0.141118 -0.006567 0.226483
v -0.213637 -0.006567 0.345683
v -0.306864 -0.006567 0.544350
v -0.219611 -0.007739 0.713039
v 0.278175 0.006567 -0.441245
v 0.213568 0.006567 -0.343145
v 0.146324 0.006567 -0.242407
v 0.071167 0.006567 -0.115294
v 0.001284 0.006567 0.001269
v -0.073873 0.006567 0.115195
v -0.141118 0.006567 0.226483
v -0.213638 0.006567 0.345683
v -0.219610 0.007739 0.713039
v -0.306864 0.006567 0.544350
v 0.375582 0.005395 -0.743706
v 0.375582 -0.005395 -0.743706
v 0.476770 0.006567 -0.732920
v 0.476770 -0.006567 -0.732920
v 0.412007 0.005395 -0.966363
v -0.069219 0.005395 -0.850693
v 0.412007 0.003239 -0.966363
v -0.069219 0.003239 -0.850693
v 0.412007 -0.003239 -0.966363
v -0.069219 -0.003239 -0.850693
v -0.069219 -0.005394 -0.850693
v 0.412007 -0.005394 -0.966363
v -0.474718 -0.003865 0.795396
v -0.474718 0.003865 0.795396
v -0.474533 -0.007153 0.795402
v -0.474533 0.007153 0.795402
v -0.244408 -0.007153 0.650340
v -0.244408 0.007153 0.650340
v -0.569801 0.005395 0.399492
v -0.569801 0.003239 0.399492
v -0.569801 -0.005395 0.399492
v -0.569801 -0.003239 0.399492
v -0.281896 0.006567 0.453463
v -0.281896 -0.006567 0.453463
v -0.588397 0.005395 0.442462
v -0.588397 0.003239 0.442462
v -0.588397 -0.003239 0.442462
v -0.300891 0.006567 0.500315
v -0.300891 -0.006567 0.500315
v -0.588397 -0.005395 0.442462
v -0.293937 0.006860 0.583971
v -0.581606 -0.003760 0.789965
v -0.581606 0.003760 0.789965
v -0.581452 -0.006860 0.789970
v -0.581452 0.006860 0.789970
v -0.293938 -0.006860 0.583971
v -0.367830 -0.003969 0.800827
v -0.367830 0.003969 0.800827
v -0.367614 -0.007446 0.800834
v -0.367614 0.007446 0.800834
v -0.224677 -0.007446 0.682276
v -0.224677 0.007446 0.682276
v -0.662384 0.005395 0.622803
v -0.662384 0.003239 0.622803
v -0.662384 -0.003239 0.622803
v -0.662384 -0.005395 0.622803
v -0.235460 -0.007739 0.765518
v -0.497617 -0.006567 0.664444
v -0.497617 0.006567 0.664444
v -0.235460 0.007739 0.765518
v -0.359471 0.007153 0.722871
v -0.359471 -0.007153 0.722871
v -0.437695 0.006860 0.686970
v -0.437695 -0.006860 0.686970
v -0.299812 -0.007446 0.741262
v -0.299812 0.007446 0.741262
v -0.634689 -0.005395 0.554117
v -0.634689 0.005395 0.554117
v -0.634689 0.003239 0.554117
v -0.634689 -0.003239 0.554117
v -0.224896 -0.007739 0.741918
v -0.402241 -0.006567 0.604397
v -0.402241 0.006567 0.604397
v -0.224895 0.007739 0.741918
v -0.301939 0.007153 0.686605
v -0.301939 -0.007153 0.686605
v -0.365816 0.006860 0.635471
v -0.365816 -0.006860 0.635471
v -0.265911 -0.007446 0.711476
v -0.265911 0.007446 0.711476
vn -0.9274 -0.0000 -0.3740
vn -0.0067 1.0000 -0.0073
vn -0.0050 1.0000 -0.0048
vn -0.0091 0.9999 -0.0087
vn -0.0040 1.0000 -0.0051
vn -0.9294 -0.0000 -0.3690
vn -0.9350 -0.0000 -0.3546
vn -0.9281 -0.0000 -0.3723
vn -0.9283 -0.0000 -0.3719
vn -0.9263 -0.0000 -0.3767
vn -0.9242 -0.0000 -0.3820
vn -0.9268 -0.0000 -0.3756
vn -0.9316 0.0001 -0.3635
vn -0.9338 0.0001 -0.3577
vn -0.9338 0.0002 -0.3577
vn -0.9177 -0.0000 -0.3972
vn -0.0037 1.0000 -0.0051
vn -0.0002 1.0000 -0.0003
vn -0.0021 1.0000 -0.0042
vn -0.0026 1.0000 -0.0019
vn -0.0024 1.0000 -0.0013
vn -0.0026 1.0000 -0.0013
vn -0.0025 1.0000 -0.0013
vn -0.0027 1.0000 -0.0014
vn -0.0027 1.0000 -0.0013
vn -0.0029 1.0000 -0.0015
vn -0.0028 1.0000 -0.0015
vn -0.0031 1.0000 -0.0016
vn -0.0030 1.0000 -0.0016
vn -0.0033 1.0000 -0.0016
vn -0.0032 1.0000 -0.0016
vn -0.0035 1.0000 -0.0018
vn -0.0034 1.0000 -0.0018
vn -0.0038 1.0000 -0.0013
vn -0.0036 1.0000 -0.0050
vn -0.9316 -0.0000 -0.3635
vn -0.9338 -0.0000 -0.3577
vn -0.0000 1.0000 -0.0000
vn -0.0038 -1.0000 -0.0013
vn -0.0036 -1.0000 -0.0050
vn -0.0038 -1.0000 -0.0014
vn -0.0033 -1.0000 -0.0016
vn -0.0032 -1.0000 -0.0016
vn -0.0034 -1.0000 -0.0018
vn -0.0035 -1.0000 -0.0018
vn -0.0031 -1.0000 -0.0016
vn -0.0030 -1.0000 -0.0016
vn -0.0029 -1.0000 -0.0015
vn -0.0028 -1.0000 -0.0015
vn -0.0027 -1.0000 -0.0014
vn -0.0027 -1.0000 -0.0013
vn -0.0026 -1.0000 -0.0013
vn -0.0025 -1.0000 -0.0013
vn -0.0024 -1.0000 -0.0013
vn -0.0021 -1.0000 -0.0042
vn -0.0026 -1.0000 -0.0019
vn -0.0002 -1.0000 -0.0003
vn -0.0037 -1.0000 -0.0051
vn -0.6390 0.0150 0.7691
vn -0.0507 0.0012 0.9987
vn -0.0507 0.0006 0.9987
vn -0.6396 -0.0000 0.7687
vn -0.0507 -0.0006 0.9987
vn -0.6390 -0.0150 0.7691
vn -0.0507 -0.0012 0.9987
vn -0.0027 1.0000 -0.0041
vn -0.0050 -1.0000 -0.0048
vn -0.0067 -1.0000 -0.0073
vn -0.0040 -1.0000 -0.0051
vn -0.0091 -0.9999 -0.0087
vn -0.0034 -1.0000 -0.0039
vn -0.0035 -1.0000 -0.0030
vn -0.0029 -1.0000 -0.0027
vn -0.0029 -1.0000 -0.0031
vn 0.6806 -0.0000 -0.7327
vn 0.2766 -0.0000 -0.9610
vn -0.2337 -0.0000 -0.9723
vn 0.6805 -0.0000 -0.7327
vn -0.0000 -1.0000 -0.0000
vn -0.0027 -1.0000 -0.0041
vn -0.0032 -1.0000 -0.0046
vn -0.0025 -1.0000 -0.0036
vn -0.0034 1.0000 -0.0039
vn -0.0033 1.0000 -0.0047
vn -0.0025 1.0000 -0.0036
vn -0.0029 1.0000 -0.0028
vn -0.0507 -0.0005 0.9987
vn -0.0507 -0.0010 0.9987
vn -0.0507 -0.0011 0.9987
vn -0.0507 0.0005 0.9987
vn -0.0507 0.0010 0.9987
vn -0.0507 0.0011 0.9987
vn -0.0037 -1.0000 -0.0018
vn -0.0037 -1.0000 -0.0017
vn -0.9177 0.0001 -0.3972
vn -0.0037 1.0000 -0.0017
vn -0.0037 1.0000 -0.0018
vn -0.9177 0.0002 -0.3972
vn -0.0507 0.0009 0.9987
vn -0.0507 -0.0009 0.9987
vn -0.0035 1.0000 -0.0030
vn -0.0029 1.0000 -0.0027
vn -0.0030 -1.0000 -0.0043
vn -0.0044 -1.0000 -0.0049
vn -0.0058 1.0000 -0.0046
vn -0.0044 1.0000 -0.0049
vn -0.0030 1.0000 -0.0043
vn -0.0028 1.0000 -0.0042
vn -0.0043 -1.0000 -0.0051
vn -0.0028 -1.0000 -0.0042
vn -0.0059 -1.0000 -0.0048
vn -0.0043 -1.0000 -0.0041
vn -0.0043 1.0000 -0.0051
vn -0.0043 1.0000 -0.0041
vn -0.0021 1.0000 -0.0031
vn -0.0059 -1.0000 -0.0051
vn -0.0062 -1.0000 -0.0049
vn -0.0021 -1.0000 -0.0031
vn -0.0031 -1.0000 -0.0047
vn -0.0059 1.0000 -0.0051
vn -0.0031 1.0000 -0.0047
vn -0.0062 1.0000 -0.0049
vn -0.9316 -0.0001 -0.3635
vn -0.9338 -0.0002 -0.3577
vn -0.9338 -0.0001 -0.3577
vn 0.7541 -0.5575 -0.3471
vn 0.5831 -0.7119 0.3914
vn 0.3309 -0.7942 -0.5096
vn 0.5890 -0.7074 0.3908
vn 0.5924 -0.7143 0.3726
vn 0.6072 -0.7075 0.3617
vn 0.6015 -0.7034 0.3787
vn 0.5929 -0.7128 0.3747
vn 0.6038 -0.7080 0.3663
vn 0.6012 -0.7064 0.3735
vn 0.6524 -0.7378 0.1733
vn 0.6436 -0.7629 -0.0619
vn -0.0038 1.0000 -0.0014
vn 0.6451 0.7614 -0.0637
vn 0.6524 0.7378 0.1733
vn 0.6012 0.7065 0.3735
vn 0.6037 0.7080 0.3663
vn 0.5929 0.7128 0.3747
vn 0.6015 0.7034 0.3787
vn 0.6072 0.7075 0.3617
vn 0.5924 0.7143 0.3726
vn 0.5890 0.7074 0.3908
vn 0.5831 0.7119 0.3914
vn 0.3302 0.7959 -0.5075
vn 0.7541 0.5575 -0.3471
vn -0.6390 -0.0149 0.7691
vn 0.3782 -0.6140 0.6928
vn 0.4515 -0.0004 0.8923
vn 0.4515 0.0004 0.8923
vn -0.6390 0.0149 0.7691
vn 0.3782 0.6140 0.6928
vn 0.6358 0.6940 0.3378
vn 0.2828 -0.0000 -0.9592
vn 0.6084 0.7293 0.3129
vn -0.9177 -0.0001 -0.3972
vn 0.6085 -0.7293 0.3129
vn -0.9177 -0.0002 -0.3972
vn 0.6358 -0.6940 0.3378
vn 0.6993 -0.6821 0.2140
vn 0.6979 0.6826 0.2168
vn 0.5879 -0.7474 -0.3095
vn 0.6969 0.6658 -0.2665
vn 0.7390 0.6737 0.0037
vn 0.5900 0.7461 -0.3086
vn 0.3879 0.8884 -0.2455
vn 0.6969 -0.6659 -0.2665
vn 0.5909 -0.6969 -0.4065
vn 0.7390 -0.6737 0.0037
vn 0.9869 -0.0000 0.1614
vn 0.3267 -0.9099 -0.2554
vn 0.8014 -0.0000 -0.5981
vt 0.761083 0.505693
vt 0.768445 0.505693
vt 0.768445 0.505693
vt 0.738916 0.505693
vt 0.738916 0.505693
vt 0.730189 0.507003
vt 0.731555 0.505693
vt 0.731555 0.505693
vt 0.761083 0.505693
vt 0.738916 0.505693
vt 0.738916 0.505693
vt 0.738916 0.505693
vt 0.730189 0.507003
vt 0.730189 0.507003
vt 0.730189 0.507003
vt 0.730189 0.507003
vt 0.730189 0.507003
vt 0.730189 0.507003
vt 0.730189 0.507003
vt 0.730189 0.507003
vt 0.768445 0.505693
vt 0.768445 0.505693
vt 0.768445 0.505693
vt 0.768445 0.505693
vt 0.768445 0.505693
vt 0.769811 0.507003
vt 0.769811 0.507003
vt 0.769811 0.507003
vt 0.769811 0.507003
vt 0.769811 0.507003
vt 0.769811 0.507003
vt 0.769811 0.507003
vt 0.769811 0.507003
vt 0.769811 0.507003
vt 0.738823 0.507000
vt 0.729165 0.507986
vt 0.738753 0.507981
vt 0.738730 0.508308
vt 0.728823 0.508313
vt 0.761177 0.507000
vt 0.761247 0.507981
vt 0.761270 0.508308
vt 0.770835 0.507986
vt 0.771177 0.508313
vt 0.729848 0.507331
vt 0.729848 0.507331
vt 0.770835 0.507986
vt 0.771177 0.508313
vt 0.738916 0.505693
vt 0.770152 0.507331
vt 0.770494 0.507658
vt 0.770494 0.507658
vt 0.770152 0.507331
vt 0.729165 0.507986
vt 0.729506 0.507658
vt 0.761200 0.507327
vt 0.761224 0.507654
vt 0.738800 0.507327
vt 0.738776 0.507654
vt 0.770494 0.507658
vt 0.770835 0.507986
vt 0.729506 0.507658
vt 0.729848 0.507331
vt 0.769811 0.507003
vt 0.770152 0.507331
vt 0.771177 0.508313
vt 0.729848 0.507331
vt 0.770835 0.507986
vt 0.771177 0.508313
vt 0.770152 0.507331
vt 0.770494 0.507658
vt 0.729506 0.507658
vt 0.000000 0.000000
s 1
f 112/1/1 111/2/1 4/3/1 2/1/1
f 113/4/1 112/1/1 2/1/1 1/5/1
f 116/6/2 114/7/3 3/8/4 45/6/5
f 114/7/1 113/4/1 1/5/1 3/8/1
f 14/9/6 32/10/6 78/10/6 76/9/6
f 31/7/7 32/10/7 33/11/7 30/8/7
f 30/8/8 33/11/8 34/11/9 29/8/9
f 29/8/9 34/11/9 35/11/10 28/7/10
f 28/7/10 35/11/10 36/11/11 27/7/11
f 27/7/11 36/11/11 37/4/12 26/8/12
f 26/8/12 37/4/12 38/4/13 25/7/13
f 25/7/13 38/4/13 39/4/14 24/8/15
f 98/8/16 95/12/16 40/4/16 23/7/16
f 72/13/17 70/7/18 31/7/19 49/14/20
f 49/14/20 31/7/19 30/8/21 50/15/21
f 50/15/21 30/8/21 29/8/22 51/16/23
f 51/16/23 29/8/22 28/7/24 52/15/25
f 52/15/25 28/7/24 27/7/26 53/17/27
f 53/17/27 27/7/26 26/8/28 54/18/29
f 54/18/29 26/8/28 25/7/30 55/18/31
f 55/18/31 25/7/30 24/8/32 56/19/33
f 97/20/34 98/8/34 23/7/34 57/18/35
f 32/10/6 31/7/6 79/7/6 78/10/6
f 32/10/7 14/9/7 15/1/7 33/11/7
f 33/11/8 15/1/8 16/1/9 34/11/9
f 34/11/9 16/1/9 17/1/10 35/11/10
f 35/11/10 17/1/10 18/1/11 36/11/11
f 36/11/11 18/1/11 19/1/12 37/4/12
f 37/4/12 19/1/12 20/1/36 38/4/13
f 38/4/13 20/1/36 21/1/37 39/4/14
f 95/12/16 94/1/16 22/1/16 40/4/16
f 31/7/19 70/7/18 80/7/38 79/7/38
f 14/9/7 5/2/7 6/21/7 15/1/7
f 15/1/8 6/21/8 7/22/9 16/1/9
f 16/1/9 7/22/9 8/21/10 17/1/10
f 17/1/10 8/21/10 9/23/11 18/1/11
f 18/1/11 9/23/11 10/24/12 19/1/12
f 19/1/12 10/24/12 11/21/36 20/1/36
f 20/1/36 11/21/36 12/3/37 21/1/37
f 94/1/16 93/25/16 13/2/16 22/1/16
f 93/25/39 96/26/39 68/27/40 13/2/41
f 11/21/42 65/28/43 66/29/44 12/3/45
f 10/24/46 64/30/47 65/28/43 11/21/42
f 9/23/48 63/31/49 64/30/47 10/24/46
f 8/21/50 62/32/51 63/31/49 9/23/48
f 7/22/52 61/29/53 62/32/51 8/21/50
f 6/21/54 60/28/54 61/29/53 7/22/52
f 5/2/55 59/33/56 60/28/54 6/21/54
f 69/24/57 71/34/58 59/33/56 5/2/55
f 3/8/59 1/5/59 41/35/59 45/6/59
f 107/36/60 105/37/61 42/38/61 46/39/60
f 1/5/62 2/1/62 43/40/62 41/35/62
f 105/37/61 106/41/63 44/42/63 42/38/61
f 2/1/64 4/3/64 47/29/64 43/40/64
f 106/41/63 108/43/65 48/44/65 44/42/63
f 122/45/66 116/6/2 45/6/5 102/46/66
f 111/2/67 117/26/68 47/29/69 4/3/70
f 124/47/71 118/48/72 48/44/73 108/43/74
f 80/7/75 77/49/76 78/10/77 79/7/77
f 77/49/76 75/1/78 76/9/77 78/10/77
f 75/1/78 73/24/75 74/2/77 76/9/77
f 5/2/6 14/9/6 76/9/6 74/2/6
f 69/24/57 5/2/55 74/2/79 73/24/79
f 121/50/80 119/51/81 84/52/82 103/53/80
f 123/54/83 120/55/84 83/55/85 107/36/86
f 101/56/87 103/53/88 84/52/89 82/57/87
f 100/58/90 101/56/87 82/57/87 81/59/90
f 102/46/91 100/58/90 81/59/90 83/55/92
f 12/3/45 66/29/44 91/33/93 87/25/94
f 21/1/16 12/3/16 87/25/16 88/1/16
f 39/4/95 21/1/16 88/1/16 90/4/95
f 56/19/33 24/8/32 89/7/96 92/20/97
f 24/8/98 39/4/95 90/4/95 89/7/95
f 87/25/94 91/33/93 96/26/39 93/25/39
f 88/1/16 87/25/16 93/25/16 94/1/16
f 90/4/95 88/1/16 94/1/16 95/12/16
f 92/20/97 89/7/96 98/8/34 97/20/34
f 89/7/95 90/4/95 95/12/16 98/8/16
f 45/6/99 41/35/90 100/58/90 102/46/91
f 41/35/90 43/40/87 101/56/87 100/58/90
f 43/40/87 47/29/100 103/53/88 101/56/87
f 117/26/68 121/50/80 103/53/80 47/29/69
f 120/55/84 122/45/66 102/46/66 83/55/85
f 115/39/101 123/54/83 107/36/86 46/39/102
f 119/51/81 124/47/71 108/43/74 84/52/82
f 82/57/87 84/52/89 108/43/65 106/41/63
f 81/59/90 82/57/87 106/41/63 105/37/61
f 83/55/92 81/59/90 105/37/61 107/36/60
f 133/60/103 138/61/104 124/47/71 119/51/81
f 129/39/105 137/36/106 123/54/83 115/39/101
f 134/62/107 136/63/108 122/45/66 120/55/84
f 131/64/109 135/65/110 121/50/80 117/26/68
f 137/36/106 134/62/107 120/55/84 123/54/83
f 135/65/110 133/60/103 119/51/81 121/50/80
f 138/61/104 132/66/111 118/48/72 124/47/71
f 126/25/112 131/64/109 117/26/68 111/2/67
f 136/63/108 130/18/113 116/6/2 122/45/66
f 125/7/1 128/4/1 113/4/1 114/7/1
f 130/18/113 125/7/114 114/7/3 116/6/2
f 128/4/1 127/1/1 112/1/1 113/4/1
f 127/1/1 126/25/1 111/2/1 112/1/1
f 22/1/1 13/2/1 126/25/1 127/1/1
f 40/4/1 22/1/1 127/1/1 128/4/1
f 57/18/35 23/7/34 125/7/114 130/18/113
f 23/7/1 40/4/1 128/4/1 125/7/1
f 104/67/115 57/18/35 130/18/113 136/63/108
f 13/2/41 68/27/40 131/64/109 126/25/112
f 110/68/116 67/69/117 132/66/111 138/61/104
f 99/70/118 86/71/119 133/60/103 135/65/110
f 109/36/120 85/72/121 134/62/107 137/36/106
f 68/27/40 99/70/118 135/65/110 131/64/109
f 85/72/121 104/67/115 136/63/108 134/62/107
f 58/39/122 109/36/120 137/36/106 129/39/105
f 86/71/119 110/68/116 138/61/104 133/60/103
f 250/1/1 140/1/1 142/3/1 249/2/1
f 251/4/1 139/5/1 140/1/1 250/1/1
f 254/6/68 183/6/69 141/8/70 252/7/67
f 252/7/1 141/8/1 139/5/1 251/4/1
f 152/9/6 214/9/6 216/10/6 170/10/6
f 169/7/7 168/8/7 171/11/7 170/10/7
f 168/8/8 167/8/9 172/11/9 171/11/8
f 167/8/9 166/7/10 173/11/10 172/11/9
f 166/7/10 165/7/11 174/11/11 173/11/10
f 165/7/11 164/8/12 175/4/12 174/11/11
f 164/8/12 163/7/123 176/4/123 175/4/12
f 163/7/123 162/8/124 177/4/125 176/4/123
f 236/8/16 161/7/16 178/4/16 233/12/16
f 210/13/126 187/14/127 169/7/55 208/7/128
f 187/14/127 188/15/129 168/8/54 169/7/55
f 188/15/129 189/16/130 167/8/52 168/8/54
f 189/16/130 190/15/131 166/7/50 167/8/52
f 190/15/131 191/17/132 165/7/48 166/7/50
f 191/17/132 192/18/133 164/8/46 165/7/48
f 192/18/133 193/18/134 163/7/42 164/8/46
f 193/18/134 194/19/135 162/8/45 163/7/42
f 235/20/136 195/18/137 161/7/39 236/8/39
f 170/10/6 216/10/6 217/7/6 169/7/6
f 170/10/7 171/11/7 153/1/7 152/9/7
f 171/11/8 172/11/9 154/1/9 153/1/8
f 172/11/9 173/11/10 155/1/10 154/1/9
f 173/11/10 174/11/11 156/1/11 155/1/10
f 174/11/11 175/4/12 157/1/12 156/1/11
f 175/4/12 176/4/123 158/1/36 157/1/12
f 176/4/123 177/4/125 159/1/37 158/1/36
f 233/12/16 178/4/16 160/1/16 232/1/16
f 169/7/55 217/7/79 218/7/79 208/7/128
f 152/9/7 153/1/7 144/21/7 143/2/7
f 153/1/8 154/1/9 145/22/9 144/21/8
f 154/1/9 155/1/10 146/21/10 145/22/9
f 155/1/10 156/1/11 147/23/11 146/21/10
f 156/1/11 157/1/12 148/24/12 147/23/11
f 157/1/12 158/1/36 149/21/36 148/24/12
f 158/1/36 159/1/37 150/3/37 149/21/36
f 232/1/16 160/1/16 151/2/16 231/25/16
f 231/25/34 151/2/138 206/27/139 234/26/140
f 149/21/30 150/3/32 204/29/141 203/28/142
f 148/24/28 149/21/30 203/28/142 202/30/143
f 147/23/26 148/24/28 202/30/143 201/31/144
f 146/21/24 147/23/26 201/31/144 200/32/145
f 145/22/22 146/21/24 200/32/145 199/29/146
f 144/21/21 145/22/22 199/29/146 198/28/147
f 143/2/19 144/21/21 198/28/147 197/33/148
f 207/24/149 143/2/19 197/33/148 209/34/150
f 141/8/151 183/6/151 179/35/151 139/5/151
f 245/36/65 184/39/152 180/38/153 243/37/63
f 139/5/62 179/35/62 181/40/62 140/1/62
f 243/37/63 180/38/153 182/42/154 244/41/61
f 140/1/155 181/40/155 185/29/155 142/3/155
f 244/41/61 182/42/154 186/44/156 246/43/60
f 260/45/80 240/46/80 183/6/69 254/6/68
f 249/2/3 142/3/4 185/29/5 255/26/2
f 262/47/83 246/43/86 186/44/156 256/48/157
f 218/7/77 217/7/77 216/10/77 215/49/158
f 215/49/158 216/10/77 214/9/77 213/1/158
f 213/1/158 214/9/77 212/2/77 211/24/77
f 143/2/6 212/2/6 214/9/6 152/9/6
f 207/24/149 211/24/38 212/2/38 143/2/19
f 259/50/66 241/53/66 222/52/85 257/51/84
f 261/54/71 245/36/74 221/55/82 258/55/81
f 239/56/90 220/57/90 222/52/92 241/53/91
f 238/58/87 219/59/87 220/57/90 239/56/90
f 240/46/88 221/55/89 219/59/87 238/58/87
f 150/3/32 225/25/96 229/33/159 204/29/141
f 159/1/16 226/1/16 225/25/16 150/3/16
f 177/4/160 228/4/160 226/1/16 159/1/16
f 194/19/135 230/20/161 227/7/94 162/8/45
f 162/8/162 227/7/160 228/4/160 177/4/160
f 225/25/96 231/25/34 234/26/140 229/33/159
f 226/1/16 232/1/16 231/25/16 225/25/16
f 228/4/160 233/12/16 232/1/16 226/1/16
f 230/20/161 235/20/136 236/8/39 227/7/94
f 227/7/160 236/8/16 233/12/16 228/4/160
f 183/6/100 240/46/88 238/58/87 179/35/87
f 179/35/87 238/58/87 239/56/90 181/40/90
f 181/40/90 239/56/90 241/53/91 185/29/99
f 255/26/2 185/29/5 241/53/66 259/50/66
f 258/55/81 221/55/82 240/46/80 260/45/80
f 253/39/163 184/39/152 245/36/74 261/54/71
f 257/51/84 222/52/85 246/43/86 262/47/83
f 220/57/90 244/41/61 246/43/60 222/52/92
f 219/59/87 243/37/63 244/41/61 220/57/90
f 221/55/89 245/36/65 243/37/63 219/59/87
f 271/60/107 257/51/84 262/47/83 276/61/106
f 267/39/164 253/39/163 261/54/71 275/36/104
f 272/62/103 258/55/81 260/45/80 274/63/110
f 269/64/113 255/26/2 259/50/66 273/65/108
f 275/36/104 261/54/71 258/55/81 272/62/103
f 273/65/108 259/50/66 257/51/84 271/60/107
f 276/61/106 262/47/83 256/48/157 270/66/165
f 264/25/114 249/2/3 255/26/2 269/64/113
f 274/63/110 260/45/80 254/6/68 268/18/109
f 263/7/1 252/7/1 251/4/1 266/4/1
f 268/18/109 254/6/68 252/7/67 263/7/112
f 266/4/1 251/4/1 250/1/1 265/1/1
f 265/1/1 250/1/1 249/2/1 264/25/1
f 160/1/1 265/1/1 264/25/1 151/2/1
f 178/4/1 266/4/1 265/1/1 160/1/1
f 195/18/137 268/18/109 263/7/112 161/7/39
f 161/7/1 263/7/1 266/4/1 178/4/1
f 242/67/166 274/63/110 268/18/109 195/18/137
f 151/2/138 264/25/114 269/64/113 206/27/139
f 248/68/167 276/61/106 270/66/165 205/69/168
f 237/70/169 273/65/108 271/60/107 224/71/170
f 247/36/171 275/36/104 272/62/103 223/72/172
f 206/27/139 269/64/113 273/65/108 237/70/169
f 223/72/172 272/62/103 274/63/110 242/67/166
f 196/39/173 267/39/164 275/36/104 247/36/171
f 224/71/170 271/60/107 276/61/106 248/68/167
f 207/73/174 77/49/76 80/7/75
f 75/1/78 208/73/175 73/24/75
f 213/1/158 207/73/149 208/73/128 215/49/158
f 208/73/128 207/73/149 209/34/150 210/13/126
f 210/13/126 209/34/150 197/33/148 187/14/127
f 187/14/127 197/33/148 198/28/147 188/15/129
f 188/15/129 198/28/147 199/29/146 189/16/130
f 189/16/130 199/29/146 200/32/145 190/15/131
f 190/15/131 200/32/145 201/31/144 191/17/132
f 191/17/132 201/31/144 202/30/143 192/18/133
f 192/18/133 202/30/143 203/28/142 193/18/134
f 193/18/134 203/28/142 204/29/141 194/19/135
f 229/33/159 230/20/161 194/19/135 204/29/141
f 234/26/140 235/20/136 230/20/161 229/33/159
f 235/20/136 234/26/140 206/27/139 195/18/137
f 195/18/137 206/27/139 237/70/169 242/67/166
f 242/67/166 237/70/169 85/73/176 223/72/172
f 247/36/171 223/72/172 224/71/170 248/68/167
f 205/69/168 196/39/173 247/36/171 248/68/167
f 270/66/165 267/39/164 196/39/173 205/69/168
f 267/39/164 270/66/165 256/48/157 253/39/163
f 184/39/152 253/39/163 256/48/157 186/44/156 182/42/154 180/38/153
