# Blender 5.1.0
# www.blender.org
o Aileron_Left
v -0.071891 1.024625 0.032487
v -0.037823 1.030379 0.027740
v 0.130660 1.092763 0.122988
v -0.124445 0.996788 0.073008
v -0.500896 -1.115376 -0.169434
v -0.130660 -1.109288 -0.012507
v -0.375181 -1.034150 -0.159682
v -0.424623 -1.044274 -0.163517
v -0.474571 -1.074950 -0.167392
v -0.130660 -1.027483 -0.140714
v -0.106306 1.011824 0.049517
v 0.130660 1.044006 0.030232
vn 0.0945 -0.3369 -0.9368
vn 0.0583 -0.1678 -0.9841
vn -0.2652 0.6799 -0.6836
vn -0.0939 0.6108 -0.7862
vn -0.1550 -0.0166 -0.9878
vn -0.5001 0.6938 -0.5182
vn 0.5939 -0.3933 -0.7018
vn 0.6384 0.3948 -0.6607
vn -0.8219 -0.5389 0.1845
vn 0.4372 -0.7293 0.5262
vn 0.4171 0.7873 0.4540
vn -0.8532 0.4493 0.2649
vt 0.556818 0.589803
vt 0.579545 0.588519
vt 0.602273 0.587222
vt 0.552188 0.596154
vt 0.625000 0.586538
vt 0.625000 0.596154
s 1
f 7/1/1 8/2/2 1/2/3 2/1/4
f 8/2/2 9/3/5 11/3/6 1/2/3
f 10/4/7 7/1/1 2/1/4 12/4/8
f 5/5/9 6/6/10 3/6/11 4/5/12
f 9/3/5 5/5/9 4/5/12 11/3/6
f 4/5/12 3/6/11 11/3/6
f 11/3/6 3/6/11 1/2/3
f 2/1/4 1/2/3 3/6/11
f 12/4/8 2/1/4 3/6/11
f 5/5/9 9/3/5 6/6/10
f 9/3/5 8/2/2 6/6/10
f 8/2/2 7/1/1 6/6/10
f 7/1/1 10/4/7 6/6/10
f 12/4/8 3/6/11 6/6/10 10/4/7
